<svg width="11" height="16" viewBox="0 0 11 16" fill="none" xmlns="http://www.w3.org/2000/svg">
  <path
    d="M1.81957 16H9.1804C10.3741 16 11 15.346 11 14.0295V8.34184C11 7.0297 10.3741 6.38227 9.1804 6.38227H1.81957C0.624447 6.38227 0 7.0297 0 8.34184V14.0295C0 15.346 0.624447 16 1.81957 16ZM1.5 4L3 4.5C3 2.62087 4.0905 1.43808 5.49677 1.43808C6.90017 1.43808 8.09804 2.46935 8.09804 4.34847L8.09515 7.05697H9.56213L9.56354 4.49768C9.56354 1.53461 7.64399 0 5.49677 0C3.35601 0 1.81957 1 1.5 4Z"
    fill="#93B5AB" />
</svg>
  